<?xml version="1.0" encoding="UTF-8" standalone="no"?>
<!-- Created with Inkscape (http://www.inkscape.org/) -->

<svg
   xmlns:dc="http://purl.org/dc/elements/1.1/"
   xmlns:cc="http://creativecommons.org/ns#"
   xmlns:rdf="http://www.w3.org/1999/02/22-rdf-syntax-ns#"
   xmlns:svg="http://www.w3.org/2000/svg"
   xmlns="http://www.w3.org/2000/svg"
   xmlns:sodipodi="http://sodipodi.sourceforge.net/DTD/sodipodi-0.dtd"
   xmlns:inkscape="http://www.inkscape.org/namespaces/inkscape"
   width="210mm"
   height="297mm"
   viewBox="0 0 210 297"
   version="1.1"
   id="svg21"
   inkscape:version="0.92.4 (5da689c313, 2019-01-14)"
   sodipodi:docname="arena.svg">
  <defs
     id="defs15" />
  <sodipodi:namedview
     id="base"
     pagecolor="#ffffff"
     bordercolor="#666666"
     borderopacity="1.0"
     inkscape:pageopacity="0.0"
     inkscape:pageshadow="2"
     inkscape:zoom="0.76"
     inkscape:cx="284.76126"
     inkscape:cy="467.16344"
     inkscape:document-units="mm"
     inkscape:current-layer="layer1"
     showgrid="false"
     inkscape:window-width="1920"
     inkscape:window-height="1001"
     inkscape:window-x="-9"
     inkscape:window-y="-9"
     inkscape:window-maximized="1" />
  <metadata
     id="metadata18">
    <rdf:RDF>
      <cc:Work
         rdf:about="">
        <dc:format>image/svg+xml</dc:format>
        <dc:type
           rdf:resource="http://purl.org/dc/dcmitype/StillImage" />
        <dc:title></dc:title>
      </cc:Work>
    </rdf:RDF>
  </metadata>
  <g
     inkscape:label="Capa 1"
     inkscape:groupmode="layer"
     id="layer1">
    <rect
       style="fill:#ffe680;fill-opacity:1;stroke-width:0.26458332"
       id="rect23"
       width="105.07738"
       height="105.077"
       x="42.333332"
       y="116.32738"
       ry="0" />
    <ellipse
       style="fill:#ffdd55;fill-opacity:1;stroke-width:0.25397316"
       id="path25"
       cx="64.4897"
       cy="202.5358"
       rx="10.817081"
       ry="9.8572216" />
    <circle
       style="fill:#ffdd55;fill-opacity:1;stroke-width:0.26458332"
       id="path27"
       cx="112.6369"
       cy="195.70238"
       r="10.583333" />
    <ellipse
       style="fill:#ffdd55;fill-opacity:1;stroke-width:0.26458332"
       id="path29"
       cx="78.241074"
       cy="176.04762"
       rx="8.6934528"
       ry="8.3154764" />
    <ellipse
       style="fill:#ffdd55;fill-opacity:1;stroke-width:0.26458332"
       id="path31"
       cx="105.07738"
       cy="166.59821"
       rx="8.3154764"
       ry="7.9375" />
    <ellipse
       style="fill:#ffdd55;fill-opacity:1;stroke-width:0.26458332"
       id="path33"
       cx="48.75893"
       cy="176.04762"
       rx="6.4255953"
       ry="16.630953" />
    <ellipse
       style="fill:#ffdd55;fill-opacity:1;stroke-width:0.26458332"
       id="path35"
       cx="139.09525"
       cy="151.47917"
       rx="8.3154764"
       ry="8.6934528" />
    <ellipse
       style="fill:#ffdd55;fill-opacity:1;stroke-width:0.26458332"
       id="path37"
       cx="140.22917"
       cy="213.46707"
       rx="7.1815434"
       ry="7.9373131" />
    <ellipse
       style="fill:#ffdd55;fill-opacity:1;stroke-width:0.26458332"
       id="path39"
       cx="139.47322"
       cy="185.11905"
       rx="2.6458333"
       ry="9.8273811" />
    <ellipse
       style="fill:#ffdd55;fill-opacity:1;stroke-width:0.26458332"
       id="path41"
       cx="80.508926"
       cy="140.51785"
       rx="9.4494047"
       ry="14.363094" />
    <ellipse
       style="fill:#ffdd55;fill-opacity:1;stroke-width:0.26458332"
       id="path43"
       cx="114.1488"
       cy="141.65178"
       rx="6.8035712"
       ry="13.985119" />
    <ellipse
       style="fill:#ffdd55;fill-opacity:1;stroke-width:0.26458332"
       id="path45"
       cx="95.25"
       cy="211.95535"
       rx="8.3154764"
       ry="7.1815472" />
    <ellipse
       style="fill:#ffdd55;fill-opacity:1;stroke-width:0.26458332"
       id="path47"
       cx="51.026787"
       cy="126.53274"
       rx="8.6934528"
       ry="10.205359" />
    <ellipse
       style="fill:#ffdd55;fill-opacity:1;stroke-width:0.26458332"
       id="path49"
       cx="140.22917"
       cy="131.8244"
       rx="5.6696429"
       ry="6.4255953" />
    <ellipse
       style="fill:#ffdd55;fill-opacity:1;stroke-width:0.26458332"
       id="path51"
       cx="139.45332"
       cy="181.24976"
       rx="8.0170736"
       ry="13.985119" />
    <ellipse
       style="fill:#ffdd55;fill-opacity:1;stroke-width:0.22980489"
       id="path53"
       cx="140.11975"
       cy="180.93147"
       rx="7.7584586"
       ry="16.630953" />
    <path
       style="fill:#c8ab37;fill-rule:evenodd;stroke-width:0.26458332"
       d="m 121.84759,199.34786 c 0,2.01884 -3.43417,7.13679 -8.52934,7.13679 -5.09516,0 -8.52933,-3.72541 -8.52933,-5.74425 10e-6,-2.01883 4.13045,4.35171 9.2256,4.35171 5.09516,0 7.83307,-5.74425 7.83307,-5.74425 z"
       id="path1498"
       inkscape:connector-curvature="0"
       sodipodi:nodetypes="cscsc" />
    <path
       sodipodi:nodetypes="cscsc"
       inkscape:connector-curvature="0"
       id="path1501"
       d="m 75.861942,205.90231 c -0.755072,1.92988 -5.82615,7.11902 -10.509947,7.55923 -7.255709,0.68195 -11.262444,-6.99313 -11.262444,-6.99313 0,0 1.877984,2.82482 9.638238,5.6018 3.697982,1.32331 12.134153,-6.1679 12.134153,-6.1679 z"
       style="fill:#c8ab37;fill-rule:evenodd;stroke-width:0.24342242" />
    <path
       style="fill:#c8ab37;fill-rule:evenodd;stroke-width:0.23669152"
       d="m 146.85639,189.20932 c -1.25358,1.6944 -2.68953,9.50413 -6.8197,8.51992 -6.39808,-1.52462 -7.38537,-10.39286 -7.38537,-10.39286 0,0 0.70702,3.3865 6.44133,8.51245 2.73258,2.44266 7.76374,-6.63951 7.76374,-6.63951 z"
       id="path1503"
       inkscape:connector-curvature="0"
       sodipodi:nodetypes="cscsc" />
    <path
       style="fill:#c8ab37;fill-rule:evenodd;stroke-width:0.22816537"
       d="m 87.669546,177.63719 c -0.61971,1.9992 -4.840531,7.29598 -8.771962,7.63511 -6.090214,0.5254 -9.514304,-7.60695 -9.514304,-7.60695 0,0 1.599045,3.00357 8.139307,6.10948 3.11662,1.48005 10.146959,-6.13764 10.146959,-6.13764 z"
       id="path1505"
       inkscape:connector-curvature="0"
       sodipodi:nodetypes="cscsc" />
    <path
       style="fill:#c8ab37;fill-rule:evenodd;stroke-width:0.19865134"
       d="m 54.625646,182.92534 c -0.380797,2.54852 -2.938226,9.4011 -5.300338,9.98243 -3.659173,0.90056 -5.679836,-9.23486 -5.679836,-9.23486 0,0 0.947098,3.73035 4.860722,7.39752 1.864953,1.74751 6.119452,-8.14509 6.119452,-8.14509 z"
       id="path1507"
       inkscape:connector-curvature="0"
       sodipodi:nodetypes="cscsc" />
    <path
       style="fill:#c8ab37;fill-rule:evenodd;stroke-width:0.24342242;fill-opacity:1"
       d="m 75.861942,205.90231 c -0.755072,1.92988 -5.82615,7.11902 -10.509947,7.55923 -7.255709,0.68195 -11.262444,-6.99313 -11.262444,-6.99313 0,0 1.877984,2.82482 9.638238,5.6018 3.697982,1.32331 12.134153,-6.1679 12.134153,-6.1679 z"
       id="path1529"
       inkscape:connector-curvature="0"
       sodipodi:nodetypes="cscsc" />
    <path
       sodipodi:nodetypes="cscsc"
       inkscape:connector-curvature="0"
       id="path1533"
       d="m 89.439244,144.97852 c -0.322661,2.6369 -3.095729,9.72712 -8.15722,10.32859 -5.668155,0.67356 -8.741267,-9.55511 -8.741267,-9.55511 0,0 1.457584,3.85972 7.48065,7.65406 2.870163,1.80811 9.417837,-8.42754 9.417837,-8.42754 z"
       style="fill:#c8ab37;fill-rule:evenodd;stroke-width:0.25067642" />
    <path
       style="fill:#c8ab37;fill-rule:evenodd;stroke-width:0.28452894"
       d="m 60.543959,125.48291 c -0.355897,3.07993 -3.414614,11.36139 -8.997479,12.06392 -6.252021,0.78672 -9.641688,-11.16049 -9.641688,-11.16049 0,0 1.607727,4.5082 8.251217,8.94004 3.165812,2.11189 10.38795,-9.84347 10.38795,-9.84347 z"
       id="path1535"
       inkscape:connector-curvature="0"
       sodipodi:nodetypes="cscsc" />
    <path
       style="fill:#c8ab37;fill-rule:evenodd;stroke-width:0.25221443"
       d="m 113.11249,164.82227 c -0.18172,2.99412 -2.28689,11.18641 -7.98916,10.67566 -8.743222,-0.78313 -8.675037,-9.87619 -8.561191,-9.87619 0,0 1.427555,3.98942 7.326541,7.91126 2.81103,1.86886 9.22381,-8.71073 9.22381,-8.71073 z"
       id="path1537"
       inkscape:connector-curvature="0"
       sodipodi:nodetypes="cscsc" />
    <path
       sodipodi:nodetypes="cscsc"
       inkscape:connector-curvature="0"
       id="path1539"
       d="m 104.09266,212.57703 c 0,2.01884 -3.43417,7.13679 -8.529344,7.13679 -5.09516,0 -8.52933,-3.72541 -8.52933,-5.74425 1e-5,-2.01883 4.13045,4.35171 9.2256,4.35171 5.095164,0 7.833074,-5.74425 7.833074,-5.74425 z"
       style="fill:#c8ab37;fill-rule:evenodd;stroke-width:0.26458332" />
    <rect
       style="fill:#800000;fill-opacity:0;stroke-width:0.26458332"
       id="rect1541"
       width="102.14309"
       height="22.967024"
       x="42.333332"
       y="116.32738" />
    <rect
       style="fill:#d4aa00;fill-opacity:0;stroke-width:0.26458332"
       id="rect1543"
       width="145.52083"
       height="7.3108549"
       x="18.451204"
       y="79.763153" />
    <rect
       style="fill:#d4aa00;fill-opacity:0;stroke-width:0.26458332"
       id="rect1545"
       width="145.1727"
       height="23.325109"
       x="35.858006"
       y="91.947914" />
    <path
       style="fill:#d4aa00;fill-rule:evenodd;stroke-width:0.21068333"
       d="m 144.47643,131.28729 c 12.88103,-10.93907 -46.247919,-8.43925 -63.904679,-8.35604 -17.656746,0.0832 -39.475318,11.29608 -39.833311,3.08936 -0.357993,-8.20673 -11.000311,-19.10641 70.55613,-9.69625 18.9119,2.1821 48.71912,-8.32729 33.15538,14.35605 v 0 z"
       id="path1580"
       inkscape:connector-curvature="0"
       sodipodi:nodetypes="csssccc" />
    <path
       sodipodi:nodetypes="cscsc"
       inkscape:connector-curvature="0"
       id="path1592"
       d="m 147.32846,212.34132 c -0.94272,1.94765 -0.7394,9.90546 -5.28115,9.9145 -7.03565,0.014 -10.00887,-8.40791 -10.00887,-8.40791 0,0 2.90139,3.9699 8.6088,6.79458 3.42471,1.69494 6.68122,-8.30117 6.68122,-8.30117 z"
       style="fill:#c8ab37;fill-rule:evenodd;stroke-width:0.24523841" />
    <path
       sodipodi:nodetypes="cscsc"
       inkscape:connector-curvature="0"
       id="path1594"
       d="m 119.72707,146.7192 c -0.3808,2.54852 -2.93822,9.4011 -5.30034,9.98243 -3.65917,0.90056 -5.67983,-9.23486 -5.67983,-9.23486 0,0 0.9471,3.73035 4.86072,7.39752 1.86495,1.74751 6.11945,-8.14509 6.11945,-8.14509 z"
       style="fill:#c8ab37;fill-rule:evenodd;stroke-width:0.19865134" />
    <path
       sodipodi:nodetypes="cscsc"
       inkscape:connector-curvature="0"
       id="path1596"
       d="m 147.95779,152.69764 c 0,2.31428 -3.36408,8.1812 -8.35528,8.1812 -4.99117,0 -8.35526,-4.27059 -8.35526,-6.58487 1e-5,-2.31427 4.04616,4.98854 9.03733,4.98854 4.99117,0 7.67321,-6.58487 7.67321,-6.58487 z"
       style="fill:#c8ab37;fill-rule:evenodd;stroke-width:0.28037679" />
    <path
       style="fill:#c8ab37;fill-rule:evenodd;stroke-width:0.19640222"
       d="m 144.47643,131.28729 c 0,2.01884 -1.8923,7.13679 -4.69984,7.13679 -2.80754,0 -4.69984,-3.72541 -4.69984,-5.74425 1e-5,-2.01883 2.27596,4.35171 5.0835,4.35171 2.80754,0 4.31618,-5.74425 4.31618,-5.74425 z"
       id="path1598"
       inkscape:connector-curvature="0"
       sodipodi:nodetypes="cscsc" />
  </g>
</svg>
