<?xml version="1.0" encoding="UTF-8" standalone="no"?>
<!-- Created with Inkscape (http://www.inkscape.org/) -->

<svg
   xmlns:dc="http://purl.org/dc/elements/1.1/"
   xmlns:cc="http://creativecommons.org/ns#"
   xmlns:rdf="http://www.w3.org/1999/02/22-rdf-syntax-ns#"
   xmlns:svg="http://www.w3.org/2000/svg"
   xmlns="http://www.w3.org/2000/svg"
   xmlns:sodipodi="http://sodipodi.sourceforge.net/DTD/sodipodi-0.dtd"
   xmlns:inkscape="http://www.inkscape.org/namespaces/inkscape"
   width="210mm"
   height="297mm"
   viewBox="0 0 210 297"
   version="1.1"
   id="svg8"
   inkscape:version="0.92.4 (5da689c313, 2019-01-14)"
   sodipodi:docname="CARTEL FLECHAS.svg">
  <defs
     id="defs2" />
  <sodipodi:namedview
     id="base"
     pagecolor="#ffffff"
     bordercolor="#666666"
     borderopacity="1.0"
     inkscape:pageopacity="0.0"
     inkscape:pageshadow="2"
     inkscape:zoom="0.99674932"
     inkscape:cx="282.85714"
     inkscape:cy="631.16767"
     inkscape:document-units="mm"
     inkscape:current-layer="layer1"
     showgrid="false"
     inkscape:window-width="1920"
     inkscape:window-height="1001"
     inkscape:window-x="-9"
     inkscape:window-y="-9"
     inkscape:window-maximized="1" />
  <metadata
     id="metadata5">
    <rdf:RDF>
      <cc:Work
         rdf:about="">
        <dc:format>image/svg+xml</dc:format>
        <dc:type
           rdf:resource="http://purl.org/dc/dcmitype/StillImage" />
        <dc:title></dc:title>
      </cc:Work>
    </rdf:RDF>
  </metadata>
  <g
     inkscape:label="Capa 1"
     inkscape:groupmode="layer"
     id="layer1">
    <path
       style="fill:#aa4400;fill-opacity:1;stroke-width:0.26458332"
       d="M 30.378086,108.85185 H 144.5409 c 0,21.05704 0,31.76725 0,63.20602 H 30.378086 Z"
       id="rect815"
       inkscape:connector-curvature="0"
       sodipodi:nodetypes="ccccc" />
    <rect
       style="fill:#aa4400;fill-opacity:1;stroke-width:0.26458332"
       id="rect817"
       width="16.658951"
       height="48.506943"
       x="79.864967"
       y="169.60802" />
    <path
       style="fill:#ff0000;fill-rule:evenodd;stroke-width:0.26458332"
       id="path819"
       sodipodi:type="arc"
       sodipodi:cx="87.949463"
       sodipodi:cy="218.60493"
       sodipodi:rx="23.273533"
       sodipodi:ry="3.4297841"
       sodipodi:start="0"
       sodipodi:end="6.2426413"
       d="m 111.223,218.60493 a 23.273533,3.4297841 0 0 1 -23.037641,3.42961 23.273533,3.4297841 0 0 1 -23.504647,-3.36008 23.273533,3.4297841 0 0 1 22.561158,-3.49772 23.273533,3.4297841 0 0 1 23.962,3.28918 l -23.254407,0.13901 z" />
    <path
       d="m 111.223,218.60493 a 23.273533,3.4297841 0 0 1 -23.037641,3.42961 23.273533,3.4297841 0 0 1 -23.504647,-3.36008 23.273533,3.4297841 0 0 1 22.561158,-3.49772 23.273533,3.4297841 0 0 1 23.962,3.28918 l -23.254407,0.13901 z"
       sodipodi:end="6.2426413"
       sodipodi:start="0"
       sodipodi:ry="3.4297841"
       sodipodi:rx="23.273533"
       sodipodi:cy="218.60493"
       sodipodi:cx="87.949463"
       sodipodi:type="arc"
       id="path821"
       style="fill:#ff0000;fill-rule:evenodd;stroke-width:0.26458332" />
    <path
       style="fill:#ff0000;fill-rule:evenodd;stroke-width:0.26458332"
       id="path823"
       sodipodi:type="arc"
       sodipodi:cx="87.949463"
       sodipodi:cy="218.60493"
       sodipodi:rx="23.273533"
       sodipodi:ry="3.4297841"
       sodipodi:start="0"
       sodipodi:end="6.2426413"
       d="m 111.223,218.60493 a 23.273533,3.4297841 0 0 1 -23.037641,3.42961 23.273533,3.4297841 0 0 1 -23.504647,-3.36008 23.273533,3.4297841 0 0 1 22.561158,-3.49772 23.273533,3.4297841 0 0 1 23.962,3.28918 l -23.254407,0.13901 z" />
    <path
       d="m 111.223,218.60493 a 23.273533,3.4297841 0 0 1 -23.037641,3.42961 23.273533,3.4297841 0 0 1 -23.504647,-3.36008 23.273533,3.4297841 0 0 1 22.561158,-3.49772 23.273533,3.4297841 0 0 1 23.962,3.28918 l -23.254407,0.13901 z"
       sodipodi:end="6.2426413"
       sodipodi:start="0"
       sodipodi:ry="3.4297841"
       sodipodi:rx="23.273533"
       sodipodi:cy="218.60493"
       sodipodi:cx="87.949463"
       sodipodi:type="arc"
       id="path825"
       style="fill:#ff0000;fill-rule:evenodd;stroke-width:0.26458332" />
    <path
       style="fill:#803300;fill-rule:evenodd;stroke-width:0.26458332"
       id="path827"
       sodipodi:type="arc"
       sodipodi:cx="87.949463"
       sodipodi:cy="218.60493"
       sodipodi:rx="23.273533"
       sodipodi:ry="3.4297841"
       sodipodi:start="0"
       sodipodi:end="6.2426413"
       d="m 111.223,218.60493 a 23.273533,3.4297841 0 0 1 -23.037641,3.42961 23.273533,3.4297841 0 0 1 -23.504647,-3.36008 23.273533,3.4297841 0 0 1 22.561158,-3.49772 23.273533,3.4297841 0 0 1 23.962,3.28918 l -23.254407,0.13901 z" />
    <path
       style="fill:#008000;fill-rule:evenodd;stroke-width:0.26458332"
       d="m 111.223,218.60493 c 1e-5,1.88066 -9.78673,-10.30859 -22.547672,-10.28953 -12.760922,0.0191 -23.735916,12.23933 -23.994616,10.35906 -0.258676,-1.88027 9.805475,-3.44054 22.561158,-3.49772 12.755691,-0.0572 23.44474,1.41007 23.962,3.28918 l -23.254407,0.13901 z"
       id="path829"
       inkscape:connector-curvature="0"
       sodipodi:nodetypes="cscsccc" />
    <path
       style="fill:#803300;fill-opacity:1;stroke-width:0.26458332"
       d="m 30.378086,108.85185 1.469907,10.77932 67.125777,-2.93981 c -45.265926,-2.81832 -50.86417,2.44136 -67.125777,2.93981 z"
       id="rect833"
       inkscape:connector-curvature="0"
       sodipodi:nodetypes="ccccc" />
    <path
       style="fill:#803300;fill-opacity:1;stroke-width:0.26458332"
       d="m 107.79321,150.9892 h 37.23765 v 6.36959 l -9.79938,-3.42978 z"
       id="rect852"
       inkscape:connector-curvature="0"
       sodipodi:nodetypes="ccccc" />
    <path
       style="fill:#803300;fill-opacity:1;stroke-width:0.26458332"
       d="m 31.847994,134.82022 24.988425,2.93981 c -12.110648,1.3959 -28.990174,-2.62418 -26.458332,17.14892 v 0 z"
       id="rect855"
       inkscape:connector-curvature="0"
       sodipodi:nodetypes="ccccc" />
    <path
       sodipodi:nodetypes="ccccc"
       inkscape:connector-curvature="0"
       id="path858"
       d="m 30.378086,108.85185 1.469907,10.77932 c 44.917043,-1.96717 96.639577,-4.23238 67.125777,-2.93981 -45.265926,-2.81832 -50.86417,2.44136 -67.125777,2.93981 z"
       style="fill:#803300;fill-opacity:1;stroke-width:0.26458332" />
    <path
       style="fill:#803300;fill-opacity:1;stroke-width:0.24260373"
       d="m 81.824846,114.24151 1.235833,10.77932 c 36.082801,-0.96719 80.928521,-4.041 56.436411,-2.93981 -38.05761,-2.81832 -42.764365,2.44136 -56.436411,2.93981 z"
       id="path860"
       inkscape:connector-curvature="0"
       sodipodi:nodetypes="ccccc" />
    <path
       sodipodi:nodetypes="ccccc"
       inkscape:connector-curvature="0"
       id="path862"
       d="m 22.192723,161.76851 1.235833,10.77932 c 36.082801,-0.96719 80.928524,-4.041 56.436411,-2.93981 -38.05761,-2.81832 -42.764365,2.44136 -56.436411,2.93981 z"
       style="fill:#803300;fill-opacity:1;stroke-width:0.24260373" />
    <text
       xml:space="preserve"
       style="font-style:normal;font-weight:normal;font-size:12.09491062px;line-height:1.25;font-family:sans-serif;letter-spacing:0px;word-spacing:0px;fill:#000000;fill-opacity:1;stroke:none;stroke-width:0.30237275"
       x="40.876308"
       y="118.3595"
       id="text866"
       transform="scale(0.8750237,1.1428262)"><tspan
         sodipodi:role="line"
         id="tspan864"
         x="40.876308"
         y="118.3595"
         style="stroke-width:0.30237275">PARA MOVERTE USA</tspan></text>
    <path
       style="fill:#000000;fill-opacity:1;stroke-width:0.26458332"
       d="m 91.665009,156.33892 -9.794683,-0.30346 4.576373,-10.56083 v 0 z"
       id="rect868"
       inkscape:connector-curvature="0"
       sodipodi:nodetypes="ccccc" />
    <path
       sodipodi:nodetypes="ccccc"
       inkscape:connector-curvature="0"
       id="path882"
       d="m 76.309203,146.96206 0.08565,9.799 -10.734192,-4.15347 v 0 z"
       style="fill:#000000;fill-opacity:1;stroke-width:0.26458332" />
    <path
       sodipodi:nodetypes="ccccc"
       inkscape:connector-curvature="0"
       id="path884"
       d="m 97.237474,156.80641 -0.2443,-9.79633 10.800036,3.97912 v 0 z"
       style="fill:#000000;fill-opacity:1;stroke-width:0.26458332" />
  </g>
</svg>
