<?xml version="1.0" encoding="UTF-8" standalone="no"?>
<!-- Created with Inkscape (http://www.inkscape.org/) -->

<svg
   xmlns:dc="http://purl.org/dc/elements/1.1/"
   xmlns:cc="http://creativecommons.org/ns#"
   xmlns:rdf="http://www.w3.org/1999/02/22-rdf-syntax-ns#"
   xmlns:svg="http://www.w3.org/2000/svg"
   xmlns="http://www.w3.org/2000/svg"
   xmlns:sodipodi="http://sodipodi.sourceforge.net/DTD/sodipodi-0.dtd"
   xmlns:inkscape="http://www.inkscape.org/namespaces/inkscape"
   width="210mm"
   height="297mm"
   viewBox="0 0 210 297"
   version="1.1"
   id="svg8"
   inkscape:version="0.92.4 (5da689c313, 2019-01-14)"
   sodipodi:docname="dibujo-1.svg">
  <defs
     id="defs2" />
  <sodipodi:namedview
     id="base"
     pagecolor="#ffffff"
     bordercolor="#666666"
     borderopacity="1.0"
     inkscape:pageopacity="0.0"
     inkscape:pageshadow="2"
     inkscape:zoom="0.7"
     inkscape:cx="211.00319"
     inkscape:cy="679.65512"
     inkscape:document-units="mm"
     inkscape:current-layer="layer1"
     showgrid="false"
     showguides="false"
     inkscape:window-width="1920"
     inkscape:window-height="1001"
     inkscape:window-x="-9"
     inkscape:window-y="-9"
     inkscape:window-maximized="1" />
  <metadata
     id="metadata5">
    <rdf:RDF>
      <cc:Work
         rdf:about="">
        <dc:format>image/svg+xml</dc:format>
        <dc:type
           rdf:resource="http://purl.org/dc/dcmitype/StillImage" />
        <dc:title></dc:title>
      </cc:Work>
    </rdf:RDF>
  </metadata>
  <g
     inkscape:label="Capa 1"
     inkscape:groupmode="layer"
     id="layer1">
    <path
       style="fill:#ff6600;fill-opacity:1;stroke-width:0.27365735"
       d="m 112.25893,92.892853 c 18.2177,0 38.93155,0.477007 38.93155,20.788697 0,20.31168 -20.12272,58.15952 -37.41964,63.87798 0,0 -14.903618,-1.4097 -33.639887,-63.87798 C 74.295637,94.226118 94.041234,92.892853 112.25893,92.892853 Z"
       id="rect16"
       inkscape:connector-curvature="0"
       sodipodi:nodetypes="sssss" />
    <ellipse
       style="fill:#ff6600;fill-rule:evenodd;stroke-width:0.23440978"
       id="path158"
       cx="123.22024"
       cy="151.85713"
       rx="35.529762"
       ry="26.458338" />
    <path
       style="fill:#ff6600;fill-rule:evenodd;stroke-width:0.27759281"
       d="m 165.55357,191.23216 c 0,14.64871 -17.66864,8.84127 -37.70868,8.84127 -20.04004,0 -34.862739,5.80744 -34.862741,-8.84127 -7e-6,-14.6487 16.245661,-26.52383 36.285711,-26.52383 20.04005,0 36.28572,11.87513 36.28571,26.52383 z"
       id="path160"
       inkscape:connector-curvature="0"
       sodipodi:nodetypes="sssss" />
    <path
       style="fill:#ff6600;fill-rule:evenodd;stroke-width:0.21471007"
       d="m 164.79762,210.82143 c 0,11.27253 -14.81282,9.07143 -34.01787,9.07142 -19.20504,0 -35.529755,2.2011 -35.529758,-9.07142 -7e-6,-11.27253 15.568758,-20.41072 34.773808,-20.41072 19.20505,0 34.77383,9.13819 34.77382,20.41072 z"
       id="path162"
       inkscape:connector-curvature="0"
       sodipodi:nodetypes="sssss" />
    <path
       style="fill:#a05a2c;fill-rule:evenodd;stroke-width:0.13344535"
       d="m 152.55821,141.00734 c 0,0 -12.92085,-7.87249 -30.62483,-7.87249 -17.70398,0 -33.486951,9.69579 -33.486955,7.87249 4e-6,-1.82329 15.360765,-8.35978 32.914535,-12.44362 23.30553,-5.42199 33.73582,8.16313 31.19725,12.44362"
       id="path182"
       inkscape:connector-curvature="0"
       sodipodi:nodetypes="cscsc" />
    <path
       sodipodi:nodetypes="cscsc"
       inkscape:connector-curvature="0"
       id="path185"
       d="m 158.6102,177.2435 c 0,0 -12.76937,-9.58126 -30.26581,-9.58126 -17.49644,0 -33.09439,11.80032 -33.094393,9.58126 3e-6,-2.21905 15.180703,-10.17432 32.528683,-15.14459 23.03232,-6.59887 33.34033,9.935 30.83152,15.14459"
       style="fill:#a05a2c;fill-rule:evenodd;stroke-width:0.14635187" />
    <path
       sodipodi:nodetypes="cscsc"
       inkscape:connector-curvature="0"
       id="path187"
       d="m 160.87369,202.23948 c 0,0 -12.92085,-7.87249 -30.62483,-7.87249 -17.70398,0 -33.486955,9.69579 -33.486959,7.87249 4e-6,-1.82329 15.360769,-8.35978 32.914539,-12.44362 23.30553,-5.42199 33.73582,8.16313 31.19725,12.44362"
       style="fill:#a05a2c;fill-rule:evenodd;stroke-width:0.13344535" />
    <path
       sodipodi:nodetypes="cscsc"
       inkscape:connector-curvature="0"
       id="path226"
       d="m 147.99628,103.89133 c 0.0845,0 -11.99604,-10.435656 -32.77891,-10.435656 -18.949256,0 -35.842369,12.852596 -35.842373,10.435656 4e-6,-2.41693 16.44121,-11.0816 35.229673,-16.495082 24.94481,-7.187314 36.10874,10.820931 33.39161,16.495082"
       style="fill:#a05a2c;fill-rule:evenodd;stroke-width:0.1589527" />
    <path
       style="fill:#ff6600;fill-rule:evenodd;stroke-width:0.26458332"
       d="m 161.23579,237.72069 c -1.56212,13.05818 -15.41392,-1.46325 -33.44663,-3.62047 -18.03272,-2.15721 -33.41775,8.86668 -31.855629,-4.19149 1.562121,-13.05818 17.446869,-21.89515 35.479589,-19.73794 18.03273,2.15722 31.38479,14.49173 29.82267,27.5499 z"
       id="path229"
       inkscape:connector-curvature="0"
       sodipodi:nodetypes="sssss"
       inkscape:transform-center-x="12.095238"
       inkscape:transform-center-y="-2.2678571" />
    <path
       style="fill:#a05a2c;fill-rule:evenodd;stroke-width:0.13831928"
       d="m 154.86977,223.35659 c 0,0 -11.40614,-9.58127 -27.03468,-9.58127 -15.62854,0 -29.561282,11.80033 -29.561285,9.58127 3e-6,-2.21905 13.560025,-10.17433 29.055975,-15.1446 20.57342,-6.59887 29.78096,9.935 27.53999,15.1446"
       id="path232"
       inkscape:connector-curvature="0"
       sodipodi:nodetypes="cscsc" />
    <path
       style="fill:#008000;fill-rule:evenodd;stroke-width:0.48850814"
       d="m 96.38393,83.378787 c 0,38.374403 -18.583822,-23.160986 -43.84263,-23.160986 -25.258808,0 -47.6276058,61.535389 -47.6276058,23.160986 -1.7e-6,-38.374378 20.4763078,-69.482958 45.7351168,-69.482958 25.258806,0 45.735119,31.10858 45.735119,69.482958 z"
       id="path234"
       inkscape:connector-curvature="0"
       sodipodi:nodetypes="sssss" />
    <path
       sodipodi:nodetypes="sssss"
       inkscape:connector-curvature="0"
       id="path237"
       d="m 207.50893,78.08712 c 0,38.3744 -18.58382,-23.160986 -43.84263,-23.160986 -25.25881,0 -47.62761,61.535386 -47.62761,23.160986 0,-38.374378 20.47631,-69.4829577 45.73512,-69.4829577 25.25881,0 45.73512,31.1085797 45.73512,69.4829577 z"
       style="fill:#008000;fill-rule:evenodd;stroke-width:0.48850814" />
    <path
       style="fill:#00ff00;fill-rule:evenodd;stroke-width:0.59278417"
       d="m 96.38393,83.378787 c 0,37.432583 -15.144483,-41.023344 -37.793912,-41.023344 -22.649429,0 -44.226922,78.455927 -44.226922,41.023344 0,-37.432586 18.360988,-67.777678 41.01042,-67.777678 22.649426,0 41.010414,30.345092 41.010414,67.777678 z"
       id="path239"
       inkscape:connector-curvature="0"
       sodipodi:nodetypes="sssss" />
    <path
       sodipodi:nodetypes="sssss"
       inkscape:connector-curvature="0"
       id="path242"
       d="m 191.63393,79.599025 c 0,37.432585 -15.14448,-41.023344 -37.79391,-41.023344 -22.64943,0 -44.22692,78.455929 -44.22692,41.023344 0,-37.432586 18.36098,-67.777678 41.01042,-67.777678 22.64942,0 41.01041,30.345092 41.01041,67.777678 z"
       style="fill:#00ff00;fill-rule:evenodd;stroke-width:0.59278417" />
    <path
       style="fill:#b3ff80;fill-rule:evenodd;stroke-width:0.44657531"
       d="m 90.336311,102.2776 c 0,0 -15.177073,-44.918536 -33.253634,-51.404781 C 37.877638,43.981652 21.544656,97.741886 21.544656,97.741886 7.9375195,90.686526 36.357471,25.170458 55.56251,25.170458 c 19.205038,0 42.333325,39.813687 34.773801,77.107142 z"
       id="path244"
       inkscape:connector-curvature="0"
       sodipodi:nodetypes="cscsc" />
    <path
       sodipodi:nodetypes="cscsc"
       inkscape:connector-curvature="0"
       id="path247"
       d="m 181.05058,97.428567 c 0,0 -14.46179,-47.442428 -33.25363,-51.404781 -11.90265,-2.509734 -33.37418,48.16737 -35.53802,46.869067 -13.607136,-7.05536 14.81282,-72.571428 34.01785,-72.571428 19.20504,0 42.33333,39.813687 34.7738,77.107142 z"
       style="fill:#b3ff80;fill-rule:evenodd;stroke-width:0.44657531" />
    <path
       style="fill:#66ff00;fill-rule:evenodd;stroke-width:0.13938496"
       d="m 108.40974,90.795058 c 5.37436,-0.801878 -0.27778,-16.427775 1.96974,-34.313441 2.24752,-17.885666 -0.85252,28.464526 -5.96159,26.07471 -1.14881,-0.537366 -1.90019,-2.991121 -2.40018,-6.268854 -1.7236,-11.299239 -1.91582,-27.611802 -3.324981,-13.607679 -6.324243,62.849916 -1.952797,29.856448 9.717011,28.115264 z"
       id="path249"
       inkscape:connector-curvature="0"
       sodipodi:nodetypes="ssssss"
       inkscape:transform-center-x="-20.347004"
       inkscape:transform-center-y="2.7073509" />
    <path
       style="fill:#a05a2c;fill-rule:evenodd;stroke-width:0.1589527"
       d="m 147.99628,103.89133 c 0.0845,0 -11.99604,-10.435656 -32.77891,-10.435656 -18.949256,0 -35.842369,12.852596 -35.842373,10.435656 4e-6,-2.41693 16.44121,-11.0816 35.229673,-16.495082 24.94481,-7.187314 36.10874,10.820931 33.39161,16.495082"
       id="path252"
       inkscape:connector-curvature="0"
       sodipodi:nodetypes="cscsc" />
    <path
       sodipodi:nodetypes="sssss"
       inkscape:connector-curvature="0"
       id="path254"
       d="m 112.25893,92.892853 c 18.2177,0 38.93155,0.477007 38.93155,20.788697 0,20.31168 -20.12272,58.15952 -37.41964,63.87798 0,0 -14.903618,-1.4097 -33.639887,-63.87798 C 74.295637,94.226118 94.041234,92.892853 112.25893,92.892853 Z"
       style="fill:#ff6600;fill-opacity:1;stroke-width:0.27365735" />
    <path
       sodipodi:nodetypes="cscsc"
       inkscape:connector-curvature="0"
       id="path256"
       d="m 152.55821,141.00734 c 0,0 -12.92085,-7.87249 -30.62483,-7.87249 -17.70398,0 -33.486951,9.69579 -33.486955,7.87249 4e-6,-1.82329 15.360765,-8.35978 32.914535,-12.44362 23.30553,-5.42199 33.73582,8.16313 31.19725,12.44362"
       style="fill:#a05a2c;fill-rule:evenodd;stroke-width:0.13344535" />
    <path
       style="fill:#a05a2c;fill-rule:evenodd;stroke-width:0.14635187"
       d="m 158.6102,177.2435 c 0,0 -12.76937,-9.58126 -30.26581,-9.58126 -17.49644,0 -33.09439,11.80032 -33.094393,9.58126 3e-6,-2.21905 15.180703,-10.17432 32.528683,-15.14459 23.03232,-6.59887 33.34033,9.935 30.83152,15.14459"
       id="path258"
       inkscape:connector-curvature="0"
       sodipodi:nodetypes="cscsc" />
    <path
       style="fill:#b3ff80;fill-rule:evenodd;stroke-width:0.16916539"
       d="m 111.12499,44.306681 c 0,21.028909 -2.96145,38.380826 -6.61458,38.380826 -3.65314,0 -6.614582,-17.351917 -6.614581,-38.380826 10e-7,-21.028908 2.769721,24.368777 6.422851,24.368777 3.65313,0 6.80631,-45.397685 6.80631,-24.368777 z"
       id="path260"
       inkscape:connector-curvature="0"
       sodipodi:nodetypes="sssss" />
    <path
       style="fill:#008000;fill-opacity:1;fill-rule:evenodd;stroke-width:0.21428274"
       d="m 119.10406,24.394772 c -6.36868,23.244377 -6.02897,49.784806 -13.0835,46.943756 C 98.966016,68.497476 98.410011,47.351054 104.77869,24.106676 111.14737,0.86229783 138.18852,-0.63314017 142.92325,5.3183912 153.0016,17.986826 125.47274,1.1503853 119.10406,24.394772 Z"
       id="path263"
       inkscape:connector-curvature="0"
       sodipodi:nodetypes="sssss" />
    <path
       sodipodi:nodetypes="sssss"
       inkscape:connector-curvature="0"
       id="path272"
       d="m 88.943906,23.289401 c 6.368683,23.747928 6.028973,50.261496 13.083504,47.978224 7.05454,-2.283271 7.61054,-23.385732 1.24187,-47.13366 C 96.900599,0.38603674 71.395823,-1.4769538 65.124713,2.3297139 46.659843,13.538191 82.575226,-0.45853676 88.943906,23.289401 Z"
       style="fill:#008000;fill-opacity:1;fill-rule:evenodd;stroke-width:0.21428274" />
    <path
       style="fill:#7fff2a;fill-opacity:1;fill-rule:evenodd;stroke-width:0.1846312"
       d="m 93.384035,15.44853 c 14.331675,17.90737 5.695286,35.720389 12.359375,33.925983 6.6641,-1.794406 0.76372,-16.110824 -5.25246,-34.774154 C 94.474761,-4.0629708 70.381586,-5.5270823 64.457561,-2.5354487 47.014661,6.2732175 81.131347,0.13884314 93.384035,15.44853 Z"
       id="path343"
       inkscape:connector-curvature="0"
       sodipodi:nodetypes="sssss" />
    <path
       sodipodi:nodetypes="sssss"
       inkscape:connector-curvature="0"
       id="path345"
       d="m 106.65733,22.665199 c -9.350425,25.009083 7.13592,27.816111 -0.0432,26.276108 -5.89418,-1.264374 -14.142593,-8.993366 -4.67705,-27.067666 9.46555,-18.0743045 30.8511,-22.08300802 35.90483,-20.2719951 14.88037,5.332412 -23.56986,0.6967807 -31.18461,21.0635531 z"
       style="fill:#7fff2a;fill-opacity:1;fill-rule:evenodd;stroke-width:0.16960411" />
    <path
       style="fill:#008000;fill-opacity:1;stroke-width:0.19854577"
       d="m 96.864658,26.444962 c 2.194434,17.900942 4.769362,32.567708 12.901282,0 0.0901,-0.360744 0.67115,0.299334 0.67115,0.671154 v 26.30579 c 0,0.371819 -0.29933,0.671154 -0.67115,0.671154 H 96.864658 c -0.371819,0 -0.671154,-0.299335 -0.671154,-0.671154 v -26.30579 c 0,-0.37182 0.625912,-1.04021 0.671154,-0.671154 z"
       id="rect347"
       inkscape:connector-curvature="0"
       sodipodi:nodetypes="sssssssss" />
    <path
       sodipodi:nodetypes="sssss"
       inkscape:connector-curvature="0"
       id="path354"
       d="m 116.03868,43.550729 c 0,21.028909 -7.87514,39.136778 -11.52827,39.136778 -3.65314,0 -12.284225,-15.462036 -12.284224,-36.490945 10e-7,-21.028908 8.439364,22.478896 12.092494,22.478896 3.65313,0 11.72,-46.153637 11.72,-25.124729 z"
       style="fill:#b3ff80;fill-rule:evenodd;stroke-width:0.16916539" />
  </g>
</svg>
